<svg width="100" height="100" viewBox="0 0 100 100" fill="none" xmlns="http://www.w3.org/2000/svg">
<g clip-path="url(#clip0_3_44)">
<path d="M50 2.5C76.2335 2.5 97.5 23.7665 97.5 50C97.5 76.2335 76.2335 97.5 50 97.5C23.7665 97.5 2.5 76.2335 2.5 50C2.5 23.7665 23.7665 2.5 50 2.5Z" fill="#FFCC4D" stroke="black" stroke-width="5"/>
<path d="M44.4444 47.1056C43.2806 47.1056 42.1972 46.3695 41.8083 45.2056C41.2444 43.5417 38.9806 38.7722 36.1111 38.7722C33.1611 38.7722 30.8667 43.8472 30.4139 45.2056C29.9278 46.6583 28.3639 47.45 26.9 46.9611C25.4444 46.4778 24.6583 44.9028 25.1444 43.4472C25.4917 42.4 28.7667 33.2139 36.1139 33.2139C43.4611 33.2139 46.7333 42.4 47.0833 43.4472C47.5694 44.9028 46.7833 46.4778 45.3278 46.9611C45.0333 47.0611 44.7361 47.1056 44.4444 47.1056ZM72.2222 47.1056C71.0583 47.1056 69.975 46.3695 69.5889 45.2056C69.025 43.5417 66.7583 38.7722 63.8889 38.7722C60.9389 38.7722 58.6417 43.8472 58.1889 45.2056C57.7028 46.6583 56.1444 47.45 54.675 46.9611C53.2222 46.4778 52.4333 44.9028 52.9194 43.4472C53.2667 42.4 56.5417 33.2139 63.8861 33.2139C71.2306 33.2139 74.5056 42.4 74.8528 43.4472C75.3389 44.9028 74.5528 46.4778 73.0972 46.9611C72.8083 47.0611 72.5139 47.1056 72.2222 47.1056ZM75.9306 57.475C75.4361 57.0278 74.6972 57 74.1667 57.3945C74.0583 57.475 63.2722 65.45 50 65.45C36.7611 65.45 25.9389 57.475 25.8333 57.3945C25.3028 57 24.5639 57.0333 24.0694 57.475C23.5778 57.9195 23.4667 58.6528 23.8083 59.2195C24.1667 59.8167 32.7444 73.7833 50 73.7833C67.2556 73.7833 75.8361 59.8167 76.1917 59.2195C76.5333 58.65 76.425 57.9222 75.9306 57.475Z" fill="#664500"/>
<path d="M58.9695 10.9639C58.9695 11.6306 59.0528 12.275 59.1972 12.8972C60.3778 20.2389 68.5417 27.9833 74.3917 30.1111C79.0167 28.4306 85.075 23.2333 87.9972 17.5028C82.1945 10.725 74.6111 5.51945 65.9722 2.60834C61.9945 3.32223 58.9695 6.78056 58.9695 10.9639ZM38.175 80.7722C38.3333 80.1 38.425 79.4 38.425 78.6778C38.425 73.5861 34.2972 69.4583 29.2056 69.4583C26.1139 69.4583 23.3889 70.9833 21.7139 73.3167C20.0417 70.9861 17.3139 69.4583 14.2222 69.4583C10.775 69.4583 7.80278 71.3722 6.22223 74.175C11.2889 83.3278 19.1389 90.7222 28.6333 95.2139C33.1806 91.4611 37.3306 86.0278 38.175 80.7722ZM95.2806 71.2278C94.4972 68.5889 92.0806 66.6528 89.1861 66.6528C87.0445 66.6528 85.1556 67.7083 83.9972 69.325C82.8389 67.7083 80.95 66.6528 78.8083 66.6528C75.2806 66.6528 72.4222 69.5111 72.4222 73.0389C72.4222 73.5389 72.4861 74.0222 72.5945 74.4889C73.4472 79.7806 79.1167 85.3111 83.4528 87.1583C88.3861 82.7139 92.4278 77.3056 95.2806 71.2278Z" fill="#FFAC33"/>
<path d="M93.4028 9.08055C93.4028 4.38055 89.5917 0.57222 84.8945 0.57222C82.0417 0.57222 79.525 1.98055 77.9806 4.13333C76.4361 1.98055 73.9194 0.57222 71.0667 0.57222C66.3667 0.57222 62.5583 4.38055 62.5583 9.08055C62.5583 9.74722 62.6417 10.3917 62.7861 11.0139C63.9695 18.3556 72.1306 26.1 77.9806 28.2278C83.8306 26.1 91.9917 18.3556 93.1722 11.0167C93.3195 10.3917 93.4028 9.74722 93.4028 9.08055ZM33.9111 78.9111C33.9111 73.8195 29.7833 69.6917 24.6917 69.6917C21.6 69.6917 18.875 71.2167 17.2 73.55C15.5278 71.2167 12.8 69.6917 9.70834 69.6917C4.61667 69.6917 0.488892 73.8195 0.488892 78.9111C0.488892 79.6333 0.580558 80.3306 0.736114 81.0056C2.01667 88.9583 10.8583 97.35 17.1972 99.6556C23.5361 97.3528 32.3778 88.9611 33.6583 81.0083C33.8194 80.3306 33.9111 79.6306 33.9111 78.9111ZM99.8556 72.575C99.8556 69.0472 96.9972 66.1889 93.4695 66.1889C91.3278 66.1889 89.4389 67.2444 88.2806 68.8611C87.1222 67.2444 85.2333 66.1889 83.0917 66.1889C79.5639 66.1889 76.7056 69.0472 76.7056 72.575C76.7056 73.075 76.7695 73.5583 76.8778 74.025C77.7639 79.5333 83.8889 85.3472 88.2806 86.9417C92.6695 85.3472 98.7972 79.5333 99.6806 74.025C99.7917 73.5583 99.8556 73.075 99.8556 72.575Z" fill="#DD2E44"/>
</g>
<defs>
<clipPath id="clip0_3_44">
<rect width="100" height="100" fill="white"/>
</clipPath>
</defs>
</svg>
