<svg width="100" height="100" viewBox="0 0 100 100" fill="none" xmlns="http://www.w3.org/2000/svg">
<g clip-path="url(#clip0_3_23)">
<path d="M50 2.5C76.2331 2.5 97.5 23.7695 97.5 50C97.5 76.2332 76.2332 97.5 50 97.5C23.7695 97.5 2.5 76.2331 2.5 50C2.5 23.7696 23.7696 2.5 50 2.5Z" fill="#FFCC4D" stroke="black" stroke-width="5"/>
<path d="M31.9444 55.5556C35.7798 55.5556 38.8889 51.2028 38.8889 45.8333C38.8889 40.4639 35.7798 36.1111 31.9444 36.1111C28.1091 36.1111 25 40.4639 25 45.8333C25 51.2028 28.1091 55.5556 31.9444 55.5556Z" fill="#664500"/>
<path d="M68.0556 55.5556C71.8909 55.5556 75 51.2028 75 45.8333C75 40.4639 71.8909 36.1111 68.0556 36.1111C64.2202 36.1111 61.1111 40.4639 61.1111 45.8333C61.1111 51.2028 64.2202 55.5556 68.0556 55.5556Z" fill="#664500"/>
<path d="M65.2361 77.4417C65.2055 77.3194 62.0555 65.2778 50 65.2778C37.9444 65.2778 34.7944 77.3194 34.7639 77.4417C34.6167 78.0333 34.8861 78.6389 35.4083 78.9528C35.9305 79.2639 36.6111 79.1917 37.0639 78.7861C37.0889 78.7639 39.8778 76.3889 50 76.3889C59.9722 76.3889 62.825 78.6944 62.9333 78.7861C63.1972 79.0361 63.5417 79.1667 63.8889 79.1667C64.1222 79.1667 64.3583 79.1083 64.5722 78.9889C65.1167 78.6778 65.3889 78.0472 65.2361 77.4417Z" fill="#664500"/>
</g>
<defs>
<clipPath id="clip0_3_23">
<rect width="100" height="100" fill="white"/>
</clipPath>
</defs>
</svg>
