<svg width="100" height="100" viewBox="0 0 100 100" fill="none" xmlns="http://www.w3.org/2000/svg">
<g clip-path="url(#clip0_1_6)">
<path d="M50 2.5C76.2332 2.5 97.5 23.7668 97.5 50C97.5 76.2332 76.2332 97.5 50 97.5C23.7668 97.5 2.5 76.2332 2.5 50C2.5 23.7668 23.7668 2.5 50 2.5Z" fill="#FFCC4D" stroke="black" stroke-width="5"/>
<path d="M55.5583 36.1111C55.4055 36.1111 55.2555 36.1 55.1 36.0722C53.5861 35.8194 52.5639 34.3889 52.8167 32.875C53.9083 26.3083 59.9555 13.8889 75 13.8889C76.5361 13.8889 77.7778 15.1333 77.7778 16.6667C77.7778 18.2 76.5361 19.4444 75 19.4444C60.8472 19.4444 58.3917 33.2056 58.2944 33.7917C58.0694 35.1472 56.8917 36.1111 55.5583 36.1111ZM44.4417 36.1111C43.1111 36.1111 41.9361 35.1528 41.7055 33.7972C41.6028 33.2139 39.0528 19.4444 25 19.4444C23.4667 19.4444 22.2222 18.2 22.2222 16.6667C22.2222 15.1333 23.4667 13.8889 25 13.8889C40.0444 13.8889 46.0889 26.3083 47.1833 32.875C47.4361 34.3889 46.4139 35.8194 44.9 36.0722C44.7472 36.1 44.5917 36.1111 44.4417 36.1111ZM31.6944 49.7C25.2083 49.7 20.9444 46.9306 20.6833 46.7556C19.4083 45.9056 19.0639 44.1806 19.9139 42.9028C20.7639 41.625 22.4861 41.2778 23.7667 42.1333C24.0417 42.3111 30.9944 46.6778 40.4278 41.9611C41.8028 41.275 43.4694 41.8333 44.1555 43.2028C44.8417 44.575 44.2861 46.2444 42.9139 46.9306C38.7611 49.0028 34.9472 49.7 31.6944 49.7ZM68.3083 49.7C65.0528 49.7 61.2389 49.0028 57.0917 46.9278C55.7194 46.2417 55.1639 44.5722 55.85 43.2C56.5389 41.8278 58.2055 41.2722 59.5778 41.9583C69.0222 46.6806 75.9639 42.3083 76.2555 42.1222C77.5333 41.2944 79.2583 41.65 80.0944 42.925C80.9333 44.2 80.5917 45.9083 79.3222 46.7556C79.0555 46.9306 74.7917 49.7 68.3083 49.7ZM72.225 75C71.3778 75 70.5472 74.6167 70 73.8889C69.9306 73.7944 62.2722 63.8889 50 63.8889C37.7305 63.8889 30.0722 73.7944 29.9944 73.8972C29.0694 75.1139 27.325 75.3556 26.1055 74.4361C24.8833 73.5139 24.6361 71.7806 25.5555 70.5556C25.9305 70.0556 34.8944 58.3333 50 58.3333C65.1055 58.3333 74.0694 70.0583 74.4444 70.5556C75.3667 71.7806 75.1167 73.5222 73.8889 74.4417C73.3889 74.8194 72.8055 75 72.225 75Z" fill="#664500"/>
<path d="M42.7528 55.7778C41.4944 55.2361 40.0333 55.7028 39.3111 56.8611L25.4222 79.0833C24.8889 79.9417 24.8583 81.0194 25.35 81.9028C25.8389 82.7861 26.7667 83.3333 27.7778 83.3333H36.1111C37.3861 83.3333 38.4972 82.4667 38.8055 81.2278L44.3611 59.0056C44.6917 57.6833 44.0111 56.3111 42.7528 55.7778ZM74.5778 79.0833L60.6889 56.8611C59.9611 55.7 58.5028 55.2389 57.25 55.7778C55.9917 56.3111 55.3083 57.6833 55.6417 59.0056L61.1972 81.2278C61.5055 82.4667 62.6139 83.3333 63.8889 83.3333H72.2222C73.2305 83.3333 74.1611 82.7861 74.6528 81.9C75.1417 81.0194 75.1139 79.9389 74.5778 79.0833Z" fill="#F5F8FA"/>
<path d="M88.8389 83.8278C88.8472 83.6611 88.8889 83.5028 88.8889 83.3333C88.8889 78.7333 85.1556 75 80.5556 75C77.7028 75 75.1889 76.4389 73.6861 78.625C72.3806 78.0833 70.9472 77.7778 69.4444 77.7778C63.3083 77.7778 58.3333 82.7528 58.3333 88.8889C58.3333 95.025 63.3083 100 69.4444 100C73.2361 100 76.5778 98.0917 78.5833 95.1917C79.9167 98.025 82.7722 100 86.1111 100C90.7139 100 94.4445 96.2694 94.4445 91.6667C94.4445 88.0222 92.0945 84.9611 88.8389 83.8278ZM30.5556 77.7778C29.05 77.7778 27.6222 78.0833 26.3139 78.625C24.8111 76.4389 22.2972 75 19.4444 75C14.8444 75 11.1111 78.7333 11.1111 83.3333C11.1111 83.5028 11.15 83.6611 11.1611 83.8278C7.90556 84.9611 5.55556 88.0222 5.55556 91.6667C5.55556 96.2694 9.28611 100 13.8889 100C17.2278 100 20.0861 98.025 21.4139 95.1917C23.4222 98.0917 26.7611 100 30.5556 100C36.6917 100 41.6667 95.025 41.6667 88.8889C41.6667 82.7528 36.6917 77.7778 30.5556 77.7778Z" fill="#E1E8ED"/>
</g>
<defs>
<clipPath id="clip0_1_6">
<rect width="100" height="100" fill="white"/>
</clipPath>
</defs>
</svg>
