<svg width="100" height="100" viewBox="0 0 100 100" fill="none" xmlns="http://www.w3.org/2000/svg">
<g clip-path="url(#clip0_3_18)">
<path d="M50 2.5C76.2331 2.5 97.5 23.7695 97.5 50C97.5 76.2332 76.2332 97.5 50 97.5C23.7695 97.5 2.5 76.2331 2.5 50C2.5 23.7696 23.7696 2.5 50 2.5Z" fill="#FFCC4D" stroke="black" stroke-width="5"/>
<path d="M31.9444 55.5556C35.7798 55.5556 38.8889 51.2028 38.8889 45.8333C38.8889 40.4639 35.7798 36.1111 31.9444 36.1111C28.1091 36.1111 25 40.4639 25 45.8333C25 51.2028 28.1091 55.5556 31.9444 55.5556Z" fill="#664500"/>
<path d="M68.0555 55.5556C71.8908 55.5556 75 51.2028 75 45.8333C75 40.4639 71.8908 36.1111 68.0555 36.1111C64.2202 36.1111 61.1111 40.4639 61.1111 45.8333C61.1111 51.2028 64.2202 55.5556 68.0555 55.5556Z" fill="#664500"/>
<path d="M33.3333 77.7778C38.8889 63.8889 69.4445 63.8889 69.4445 69.4444C69.4445 72.2222 47.2222 66.6667 33.3333 77.7778Z" fill="#664500"/>
</g>
<defs>
<clipPath id="clip0_3_18">
<rect width="100" height="100" fill="white"/>
</clipPath>
</defs>
</svg>
