<svg width="100" height="100" viewBox="0 0 100 100" fill="none" xmlns="http://www.w3.org/2000/svg">
<g clip-path="url(#clip0_3_38)">
<path d="M50 2.5C76.2331 2.5 97.5 23.7695 97.5 50C97.5 76.2332 76.2332 97.5 50 97.5C23.7695 97.5 2.5 76.2331 2.5 50C2.5 23.7696 23.7696 2.5 50 2.5Z" fill="#FFCC4D" stroke="black" stroke-width="5"/>
<path d="M31.9444 50C35.7798 50 38.8889 43.1599 38.8889 34.7222C38.8889 26.2846 35.7798 19.4445 31.9444 19.4445C28.1091 19.4445 25 26.2846 25 34.7222C25 43.1599 28.1091 50 31.9444 50Z" fill="#664500"/>
<path d="M68.0556 50C71.8909 50 75 43.1599 75 34.7222C75 26.2846 71.8909 19.4445 68.0556 19.4445C64.2202 19.4445 61.1111 26.2846 61.1111 34.7222C61.1111 43.1599 64.2202 50 68.0556 50Z" fill="#664500"/>
<path d="M50 61.1111C39.9361 61.1111 33.2583 59.9389 25 58.3333C23.1139 57.9694 19.4445 58.3333 19.4445 63.8889C19.4445 75 32.2083 88.8889 50 88.8889C67.7889 88.8889 80.5556 75 80.5556 63.8889C80.5556 58.3333 76.8861 57.9666 75 58.3333C66.7417 59.9389 60.0639 61.1111 50 61.1111Z" fill="#664500"/>
<path d="M25 63.8889C25 63.8889 33.3333 66.6667 50 66.6667C66.6667 66.6667 75 63.8889 75 63.8889C75 63.8889 69.4444 75 50 75C30.5556 75 25 63.8889 25 63.8889Z" fill="white"/>
</g>
<defs>
<clipPath id="clip0_3_38">
<rect width="100" height="100" fill="white"/>
</clipPath>
</defs>
</svg>
