<svg width="100" height="100" viewBox="0 0 100 100" fill="none" xmlns="http://www.w3.org/2000/svg">
<g clip-path="url(#clip0_3_28)">
<path d="M50 2.5C76.2335 2.5 97.5 23.7665 97.5 50C97.5 76.2335 76.2335 97.5 50 97.5C23.7665 97.5 2.5 76.2335 2.5 50C2.5 23.7665 23.7665 2.5 50 2.5Z" fill="#FFCC4D" stroke="black" stroke-width="5"/>
<path d="M29.2083 65.6139C29.3333 66.1111 32.4528 77.7778 50 77.7778C67.55 77.7778 70.6667 66.1111 70.7917 65.6139C70.9444 65.0111 70.6722 64.3861 70.1333 64.075C69.5917 63.7667 68.9139 63.8583 68.4667 64.2889C68.4139 64.3417 63.0389 69.4444 50 69.4444C36.9611 69.4444 31.5833 64.3417 31.5333 64.2917C31.2667 64.0278 30.9111 63.8889 30.5556 63.8889C30.3222 63.8889 30.0861 63.9472 29.8722 64.0667C29.3278 64.3778 29.0556 65.0083 29.2083 65.6139Z" fill="#664500"/>
<path d="M33.3333 47.2222C37.1686 47.2222 40.2778 42.8694 40.2778 37.5C40.2778 32.1306 37.1686 27.7778 33.3333 27.7778C29.498 27.7778 26.3889 32.1306 26.3889 37.5C26.3889 42.8694 29.498 47.2222 33.3333 47.2222Z" fill="#664500"/>
<path d="M66.6667 47.2222C70.502 47.2222 73.6111 42.8694 73.6111 37.5C73.6111 32.1306 70.502 27.7778 66.6667 27.7778C62.8314 27.7778 59.7222 32.1306 59.7222 37.5C59.7222 42.8694 62.8314 47.2222 66.6667 47.2222Z" fill="#664500"/>
</g>
<defs>
<clipPath id="clip0_3_28">
<rect width="100" height="100" fill="white"/>
</clipPath>
</defs>
</svg>
