<svg width="100" height="100" viewBox="0 0 100 100" fill="none" xmlns="http://www.w3.org/2000/svg">
<g clip-path="url(#clip0_3_33)">
<path d="M50 2.5C76.2332 2.5 97.5 23.7668 97.5 50C97.5 76.2332 76.2332 97.5 50 97.5C23.7668 97.5 2.5 76.2332 2.5 50C2.5 23.7668 23.7668 2.5 50 2.5Z" fill="#FFCC4D" stroke="black" stroke-width="5"/>
<path d="M19.4444 63.8889C27.1151 63.8889 33.3333 57.6706 33.3333 50C33.3333 42.3294 27.1151 36.1111 19.4444 36.1111C11.7738 36.1111 5.55556 42.3294 5.55556 50C5.55556 57.6706 11.7738 63.8889 19.4444 63.8889Z" fill="#FF7892"/>
<path d="M80.5555 63.8889C88.2262 63.8889 94.4444 57.6706 94.4444 50C94.4444 42.3294 88.2262 36.1111 80.5555 36.1111C72.8849 36.1111 66.6667 42.3294 66.6667 50C66.6667 57.6706 72.8849 63.8889 80.5555 63.8889Z" fill="#FF7892"/>
<path d="M75.9306 60.0805C75.4361 59.6333 74.6972 59.6055 74.1667 60C74.0583 60.0805 63.2722 68.0555 50 68.0555C36.7611 68.0555 25.9389 60.0805 25.8333 60C25.3028 59.6055 24.5639 59.6389 24.0695 60.0805C23.5778 60.525 23.4667 61.2583 23.8083 61.825C24.1667 62.4222 32.7445 76.3889 50 76.3889C67.2556 76.3889 75.8361 62.4222 76.1917 61.825C76.5333 61.2555 76.425 60.525 75.9306 60.0805ZM22.2195 41.6667C21.8028 41.6667 21.3778 41.5722 20.9806 41.3722C19.6083 40.6861 19.0528 39.0167 19.7389 37.6444C19.8833 37.3555 23.4 30.5555 33.3333 30.5555C43.2695 30.5555 46.7833 37.3583 46.9278 37.6472C47.6139 39.0194 47.0583 40.6889 45.6861 41.375C44.3195 42.0555 42.6722 41.5111 41.975 40.1639C41.8556 39.9417 39.6695 36.1111 33.3333 36.1111C26.8972 36.1111 24.725 40.0917 24.7056 40.1305C24.2195 41.1055 23.2389 41.6667 22.2195 41.6667ZM77.7806 41.6667C76.7611 41.6667 75.7806 41.1055 75.2917 40.1305C75.2222 40.0028 73.0528 36.1111 66.6667 36.1111C60.2806 36.1111 58.1111 40.0028 58.0222 40.1667C57.3 41.5028 55.6361 42.0278 54.2861 41.3333C52.9389 40.6333 52.3917 39.0028 53.0695 37.6444C53.2139 37.3583 56.7306 30.5555 66.6667 30.5555C76.6028 30.5555 80.1195 37.3583 80.2639 37.6472C80.95 39.0194 80.3945 40.6889 79.0222 41.375C78.6222 41.5722 78.1972 41.6667 77.7806 41.6667Z" fill="#664500"/>
</g>
<defs>
<clipPath id="clip0_3_33">
<rect width="100" height="100" fill="white"/>
</clipPath>
</defs>
</svg>
