<svg width="100" height="100" viewBox="0 0 100 100" fill="none" xmlns="http://www.w3.org/2000/svg">
<g clip-path="url(#clip0_3_49)">
<path d="M50 2.5C76.2332 2.5 97.5 23.7668 97.5 50C97.5 76.2332 76.2332 97.5 50 97.5C23.7668 97.5 2.5 76.2332 2.5 50C2.5 23.7668 23.7668 2.5 50 2.5Z" fill="#FFCC4D" stroke="black" stroke-width="5"/>
<path d="M50 58.3333C39.9361 58.3333 33.2583 57.1611 25 55.5555C23.1139 55.1917 19.4445 55.5555 19.4445 61.1111C19.4445 72.2222 32.2083 86.1111 50 86.1111C67.7889 86.1111 80.5556 72.2222 80.5556 61.1111C80.5556 55.5555 76.8861 55.1889 75 55.5555C66.7417 57.1611 60.0639 58.3333 50 58.3333Z" fill="#664500"/>
<path d="M25 61.1111C25 61.1111 33.3333 63.8889 50 63.8889C66.6667 63.8889 75 61.1111 75 61.1111C75 61.1111 69.4444 72.2222 50 72.2222C30.5556 72.2222 25 61.1111 25 61.1111Z" fill="white"/>
<path d="M43.5611 12.2583L30.9445 14.4833L24.4445 2.66945C23.7278 1.36667 22.2556 0.66945 20.8 0.925005C19.3361 1.18334 18.1972 2.34445 17.9695 3.81112L15.9 17.1361L3.28335 19.3611C1.79724 19.6222 0.650013 20.8195 0.447235 22.3167C0.244458 23.8139 1.03335 25.2695 2.40001 25.9195L13.7056 31.2861L11.6278 44.6528C11.3972 46.1417 12.1528 47.6083 13.4972 48.2889C13.9945 48.5389 14.5278 48.6583 15.0583 48.6583C15.9667 48.6583 16.8639 48.3028 17.5333 47.625L27.2889 37.7333L39.8389 43.6917C41.2 44.3361 42.8222 44.0333 43.8556 42.9361C44.8889 41.8389 45.0945 40.2028 44.3695 38.8833L37.8472 27.0278L46.6389 18.1167C47.7 17.0417 47.9417 15.4028 47.2417 14.0639C46.5361 12.725 45.0389 12 43.5611 12.2583ZM56.4389 12.2583L69.0556 14.4833L75.5556 2.66945C76.2722 1.36667 77.7445 0.66945 79.2 0.925005C80.6611 1.18334 81.8 2.34445 82.0278 3.81112L84.0972 17.1361L96.7139 19.3611C98.2028 19.6222 99.35 20.8167 99.55 22.3139C99.75 23.8111 98.9639 25.2667 97.5972 25.9167L86.2917 31.2833L88.3695 44.65C88.6 46.1389 87.8445 47.6056 86.5 48.2861C86.0028 48.5361 85.4695 48.6556 84.9389 48.6556C84.0306 48.6556 83.1333 48.3 82.4639 47.6222L72.7083 37.7306L60.1583 43.6889C58.7972 44.3333 57.175 44.0306 56.1417 42.9333C55.1083 41.8361 54.9028 40.2 55.6278 38.8806L62.15 27.0278L53.3583 18.1167C52.2972 17.0417 52.0556 15.4028 52.7556 14.0639C53.4639 12.725 54.9611 12 56.4389 12.2583Z" fill="#E95F28"/>
</g>
<defs>
<clipPath id="clip0_3_49">
<rect width="100" height="100" fill="white"/>
</clipPath>
</defs>
</svg>
