<svg width="150" height="155" viewBox="0 0 150 155" fill="none" xmlns="http://www.w3.org/2000/svg">
<circle cx="75" cy="76" r="70" stroke="white" stroke-width="10"/>
<mask id="path-2-outside-1_320_30" maskUnits="userSpaceOnUse" x="48" y="28" width="56" height="98" fill="black">
<rect fill="white" x="48" y="28" width="56" height="98"/>
<path d="M67.8182 97.8182V97.2727C67.8788 91.4848 68.4848 86.8788 69.6364 83.4545C70.7879 80.0303 72.4242 77.2576 74.5455 75.1364C76.6667 73.0152 79.2121 71.0606 82.1818 69.2727C83.9697 68.1818 85.5758 66.8939 87 65.4091C88.4242 63.8939 89.5455 62.1515 90.3636 60.1818C91.2121 58.2121 91.6364 56.0303 91.6364 53.6364C91.6364 50.6667 90.9394 48.0909 89.5455 45.9091C88.1515 43.7273 86.2879 42.0455 83.9545 40.8636C81.6212 39.6818 79.0303 39.0909 76.1818 39.0909C73.697 39.0909 71.303 39.6061 69 40.6364C66.697 41.6667 64.7727 43.2879 63.2273 45.5C61.6818 47.7121 60.7879 50.6061 60.5455 54.1818H49.0909C49.3333 49.0303 50.6667 44.6212 53.0909 40.9545C55.5455 37.2879 58.7727 34.4848 62.7727 32.5454C66.803 30.6061 71.2727 29.6364 76.1818 29.6364C81.5152 29.6364 86.1515 30.697 90.0909 32.8182C94.0606 34.9394 97.1212 37.8485 99.2727 41.5454C101.455 45.2424 102.545 49.4545 102.545 54.1818C102.545 57.5151 102.03 60.5303 101 63.2273C100 65.9242 98.5455 68.3333 96.6364 70.4545C94.7576 72.5758 92.4849 74.4545 89.8182 76.0909C87.1515 77.7576 85.0152 79.5152 83.4091 81.3636C81.803 83.1818 80.6364 85.3485 79.9091 87.8636C79.1818 90.3788 78.7879 93.5152 78.7273 97.2727V97.8182H67.8182ZM73.6364 124.727C71.3939 124.727 69.4697 123.924 67.8636 122.318C66.2576 120.712 65.4545 118.788 65.4545 116.545C65.4545 114.303 66.2576 112.379 67.8636 110.773C69.4697 109.167 71.3939 108.364 73.6364 108.364C75.8788 108.364 77.803 109.167 79.4091 110.773C81.0152 112.379 81.8182 114.303 81.8182 116.545C81.8182 118.03 81.4394 119.394 80.6818 120.636C79.9545 121.879 78.9697 122.879 77.7273 123.636C76.5152 124.364 75.1515 124.727 73.6364 124.727Z"/>
</mask>
<path d="M67.8182 97.8182V97.2727C67.8788 91.4848 68.4848 86.8788 69.6364 83.4545C70.7879 80.0303 72.4242 77.2576 74.5455 75.1364C76.6667 73.0152 79.2121 71.0606 82.1818 69.2727C83.9697 68.1818 85.5758 66.8939 87 65.4091C88.4242 63.8939 89.5455 62.1515 90.3636 60.1818C91.2121 58.2121 91.6364 56.0303 91.6364 53.6364C91.6364 50.6667 90.9394 48.0909 89.5455 45.9091C88.1515 43.7273 86.2879 42.0455 83.9545 40.8636C81.6212 39.6818 79.0303 39.0909 76.1818 39.0909C73.697 39.0909 71.303 39.6061 69 40.6364C66.697 41.6667 64.7727 43.2879 63.2273 45.5C61.6818 47.7121 60.7879 50.6061 60.5455 54.1818H49.0909C49.3333 49.0303 50.6667 44.6212 53.0909 40.9545C55.5455 37.2879 58.7727 34.4848 62.7727 32.5454C66.803 30.6061 71.2727 29.6364 76.1818 29.6364C81.5152 29.6364 86.1515 30.697 90.0909 32.8182C94.0606 34.9394 97.1212 37.8485 99.2727 41.5454C101.455 45.2424 102.545 49.4545 102.545 54.1818C102.545 57.5151 102.03 60.5303 101 63.2273C100 65.9242 98.5455 68.3333 96.6364 70.4545C94.7576 72.5758 92.4849 74.4545 89.8182 76.0909C87.1515 77.7576 85.0152 79.5152 83.4091 81.3636C81.803 83.1818 80.6364 85.3485 79.9091 87.8636C79.1818 90.3788 78.7879 93.5152 78.7273 97.2727V97.8182H67.8182ZM73.6364 124.727C71.3939 124.727 69.4697 123.924 67.8636 122.318C66.2576 120.712 65.4545 118.788 65.4545 116.545C65.4545 114.303 66.2576 112.379 67.8636 110.773C69.4697 109.167 71.3939 108.364 73.6364 108.364C75.8788 108.364 77.803 109.167 79.4091 110.773C81.0152 112.379 81.8182 114.303 81.8182 116.545C81.8182 118.03 81.4394 119.394 80.6818 120.636C79.9545 121.879 78.9697 122.879 77.7273 123.636C76.5152 124.364 75.1515 124.727 73.6364 124.727Z" fill="white"/>
<path d="M67.8182 97.8182H66.8182V98.8182H67.8182V97.8182ZM67.8182 97.2727L66.8182 97.2623V97.2727H67.8182ZM69.6364 83.4545L68.6885 83.1358L68.6885 83.1358L69.6364 83.4545ZM74.5455 75.1364L75.2526 75.8435L75.2526 75.8435L74.5455 75.1364ZM82.1818 69.2727L82.6976 70.1295L82.7027 70.1264L82.1818 69.2727ZM87 65.4091L87.7217 66.1013L87.7286 66.094L87 65.4091ZM90.3636 60.1818L89.4451 59.7862L89.4401 59.7982L90.3636 60.1818ZM69 40.6364L68.5916 39.7235L68.5916 39.7235L69 40.6364ZM63.2273 45.5L64.047 46.0727L64.047 46.0727L63.2273 45.5ZM60.5455 54.1818V55.1818H61.48L61.5432 54.2495L60.5455 54.1818ZM49.0909 54.1818L48.092 54.1348L48.0427 55.1818H49.0909V54.1818ZM53.0909 40.9545L52.2599 40.3983L52.2567 40.403L53.0909 40.9545ZM62.7727 32.5454L62.3391 31.6443L62.3365 31.6456L62.7727 32.5454ZM90.0909 32.8182L89.6168 33.6987L89.6196 33.7002L90.0909 32.8182ZM99.2727 41.5454L98.4084 42.0484L98.4115 42.0537L99.2727 41.5454ZM101 63.2273L100.066 62.8704L100.062 62.8796L101 63.2273ZM96.6364 70.4545L95.893 69.7856L95.8878 69.7915L96.6364 70.4545ZM89.8182 76.0909L89.2952 75.2386L89.2882 75.2429L89.8182 76.0909ZM83.4091 81.3636L84.1586 82.0257L84.164 82.0195L83.4091 81.3636ZM78.7273 97.2727L77.7274 97.2566L77.7273 97.2647V97.2727H78.7273ZM78.7273 97.8182V98.8182H79.7273V97.8182H78.7273ZM67.8636 122.318L68.5707 121.611L68.5707 121.611L67.8636 122.318ZM67.8636 110.773L68.5707 111.48L68.5707 111.48L67.8636 110.773ZM80.6818 120.636L79.828 120.116L79.8233 120.123L79.8188 120.131L80.6818 120.636ZM77.7273 123.636L78.2418 124.494L78.2479 124.49L77.7273 123.636ZM68.8182 97.8182V97.2727H66.8182V97.8182H68.8182ZM68.8181 97.2832C68.8782 91.5451 69.48 87.0567 70.5842 83.7733L68.6885 83.1358C67.4897 86.7008 66.8794 91.4246 66.8182 97.2623L68.8181 97.2832ZM70.5842 83.7733C71.6965 80.4658 73.2606 77.8355 75.2526 75.8435L73.8383 74.4293C71.5879 76.6797 69.8793 79.5948 68.6885 83.1358L70.5842 83.7733ZM75.2526 75.8435C77.3082 73.7878 79.787 71.8817 82.6976 70.1294L81.666 68.416C78.6372 70.2395 76.0251 72.2425 73.8383 74.4293L75.2526 75.8435ZM82.7027 70.1264C84.5628 68.9913 86.2367 67.6495 87.7217 66.1013L86.2783 64.7169C84.9148 66.1384 83.3765 67.3723 81.661 68.4191L82.7027 70.1264ZM87.7286 66.094C89.2376 64.4887 90.4239 62.6436 91.2871 60.5654L89.4401 59.7982C88.667 61.6595 87.6109 63.2992 86.2714 64.7242L87.7286 66.094ZM91.282 60.5774C92.1903 58.469 92.6364 56.1505 92.6364 53.6364H90.6364C90.6364 55.9101 90.234 57.9552 89.4452 59.7862L91.282 60.5774ZM92.6364 53.6364C92.6364 50.5046 91.8993 47.7359 90.3882 45.3707L88.7028 46.4475C89.9795 48.4459 90.6364 50.8287 90.6364 53.6364H92.6364ZM90.3882 45.3707C88.8969 43.0365 86.8976 41.2333 84.4064 39.9715L83.5027 41.7557C85.6782 42.8576 87.4062 44.418 88.7028 46.4475L90.3882 45.3707ZM84.4064 39.9715C81.9208 38.7126 79.173 38.0909 76.1818 38.0909V40.0909C78.8876 40.0909 81.3216 40.651 83.5027 41.7557L84.4064 39.9715ZM76.1818 38.0909C73.554 38.0909 71.0211 38.6367 68.5916 39.7235L69.4084 41.5492C71.585 40.5754 73.8399 40.0909 76.1818 40.0909V38.0909ZM68.5916 39.7235C66.1116 40.833 64.0493 42.5774 62.4075 44.9273L64.047 46.0727C65.4962 43.9984 67.2823 42.5003 69.4084 41.5492L68.5916 39.7235ZM62.4075 44.9273C60.7291 47.3297 59.7985 50.4149 59.5477 54.1142L61.5432 54.2495C61.7772 50.7973 62.6345 48.0945 64.047 46.0727L62.4075 44.9273ZM60.5455 53.1818H49.0909V55.1818H60.5455V53.1818ZM50.0898 54.2288C50.3252 49.2257 51.6162 44.9982 53.9251 41.5061L52.2567 40.403C49.7171 44.2443 48.3414 48.8349 48.092 54.1348L50.0898 54.2288ZM53.9219 41.5108C56.2769 37.9928 59.3675 35.3078 63.209 33.4453L62.3365 31.6456C58.178 33.6619 54.814 36.5829 52.2599 40.3983L53.9219 41.5108ZM63.2063 33.4465C67.0886 31.5784 71.408 30.6364 76.1818 30.6364V28.6364C71.1374 28.6364 66.5175 29.6337 62.3391 31.6443L63.2063 33.4465ZM76.1818 30.6364C81.3814 30.6364 85.8487 31.6697 89.6168 33.6986L90.565 31.9377C86.4543 29.7243 81.649 28.6364 76.1818 28.6364V30.6364ZM89.6196 33.7002C93.4346 35.7387 96.3552 38.5204 98.4084 42.0484L100.137 41.0425C97.8872 37.1766 94.6866 34.1401 90.5622 31.9362L89.6196 33.7002ZM98.4115 42.0537C100.493 45.5814 101.545 49.6147 101.545 54.1818H103.545C103.545 49.2944 102.416 44.9034 100.134 41.0372L98.4115 42.0537ZM101.545 54.1818C101.545 57.4118 101.046 60.3035 100.066 62.8704L101.934 63.5841C103.014 60.7571 103.545 57.6185 103.545 54.1818H101.545ZM100.062 62.8796C99.1059 65.4591 97.717 67.759 95.8931 69.7856L97.3797 71.1235C99.3739 68.9077 100.894 66.3893 101.938 63.5749L100.062 62.8796ZM95.8878 69.7915C94.0808 71.8316 91.8864 73.6485 89.2952 75.2386L90.3412 76.9432C93.0833 75.2606 95.4343 73.3199 97.385 71.1176L95.8878 69.7915ZM89.2882 75.2429C86.56 76.948 84.3407 78.7667 82.6542 80.7078L84.164 82.0195C85.6896 80.2636 87.743 78.5671 90.3482 76.9389L89.2882 75.2429ZM82.6596 80.7016C80.948 82.6393 79.7135 84.94 78.9484 87.5859L80.8697 88.1414C81.5592 85.7569 82.6581 83.7244 84.1586 82.0257L82.6596 80.7016ZM78.9484 87.5859C78.1885 90.2142 77.7889 93.4454 77.7274 97.2566L79.7271 97.2889C79.7869 93.5849 80.1752 90.5434 80.8697 88.1414L78.9484 87.5859ZM77.7273 97.2727V97.8182H79.7273V97.2727H77.7273ZM78.7273 96.8182H67.8182V98.8182H78.7273V96.8182ZM73.6364 123.727C71.663 123.727 69.992 123.032 68.5707 121.611L67.1565 123.025C68.9474 124.816 71.1249 125.727 73.6364 125.727V123.727ZM68.5707 121.611C67.1495 120.19 66.4545 118.519 66.4545 116.545H64.4545C64.4545 119.057 65.3656 121.234 67.1565 123.025L68.5707 121.611ZM66.4545 116.545C66.4545 114.572 67.1495 112.901 68.5707 111.48L67.1565 110.066C65.3656 111.857 64.4545 114.034 64.4545 116.545H66.4545ZM68.5707 111.48C69.992 110.059 71.663 109.364 73.6364 109.364V107.364C71.1249 107.364 68.9474 108.275 67.1565 110.066L68.5707 111.48ZM73.6364 109.364C75.6098 109.364 77.2807 110.059 78.702 111.48L80.1162 110.066C78.3253 108.275 76.1478 107.364 73.6364 107.364V109.364ZM78.702 111.48C80.1232 112.901 80.8182 114.572 80.8182 116.545H82.8182C82.8182 114.034 81.9071 111.857 80.1162 110.066L78.702 111.48ZM80.8182 116.545C80.8182 117.851 80.4879 119.033 79.828 120.116L81.5356 121.157C82.3908 119.754 82.8182 118.21 82.8182 116.545H80.8182ZM79.8188 120.131C79.176 121.229 78.3095 122.11 77.2067 122.783L78.2479 124.49C79.6299 123.647 80.7331 122.528 81.5448 121.142L79.8188 120.131ZM77.2128 122.779C76.1673 123.406 74.9838 123.727 73.6364 123.727V125.727C75.3192 125.727 76.863 125.321 78.2418 124.494L77.2128 122.779Z" fill="white" mask="url(#path-2-outside-1_320_30)"/>
</svg>
